<svg width="18" height="18" viewBox="0 0 18 18" fill="none" xmlns="http://www.w3.org/2000/svg">
<g clip-path="url(#clip0)">
<path fill-rule="evenodd" clip-rule="evenodd" d="M4.26314 12.7485C3.87262 13.139 3.87262 13.7722 4.26314 14.1627C4.65367 14.5532 5.28683 14.5532 5.67736 14.1627L9.21289 10.6272L12.7484 14.1627C13.1389 14.5532 13.7721 14.5532 14.1626 14.1627C14.5532 13.7722 14.5532 13.139 14.1626 12.7485L10.6271 9.21297L14.1626 5.67744C14.5532 5.28691 14.5532 4.65375 14.1626 4.26322C13.7721 3.8727 13.1389 3.8727 12.7484 4.26322L9.21289 7.79876L5.67736 4.26322C5.28683 3.8727 4.65367 3.8727 4.26314 4.26322C3.87262 4.65375 3.87262 5.28691 4.26314 5.67744L7.79868 9.21297L4.26314 12.7485Z" fill="white"/>
</g>
<defs>
<clipPath id="clip0">
<rect width="12" height="12" fill="white" transform="translate(9.21289 17.6982) rotate(-135)"/>
</clipPath>
</defs>
</svg>
