<svg aria-hidden="true" style="position:absolute;width:0;height:0" xmlns="http://www.w3.org/2000/svg" overflow="hidden"><defs><symbol id="icon-Cross" viewBox="0 0 32 32"><path fill="var(--color1, #fff)" d="M7.579 22.664a1.778 1.778 0 002.514 2.514l6.285-6.285 6.285 6.285a1.778 1.778 0 002.514-2.514l-6.285-6.285 6.285-6.285a1.778 1.778 0 00-2.514-2.514l-6.285 6.285-6.285-6.285a1.778 1.778 0 00-2.514 2.514l6.285 6.285-6.285 6.285z"/></symbol><symbol id="icon-Logo" viewBox="0 0 127 32"><path d="M111.669 14.209s-1.741 3.398-3.606 5.066h-2.114c-1.803-1.606-3.606-5.066-3.606-5.066v10.625h-5.347V9.081h6.218l3.793 5.745 3.793-5.745h6.218v15.753h-5.347V14.209zm-63.482-1.607c-1.181 0-2.922.927-3.233 1.915.435.803 2.114 1.483 3.171 1.421 1.119 0 1.927-.618 1.927-1.668s-.808-1.668-1.865-1.668zm38.86 0c-1.181 0-2.922.927-3.233 1.915.435.803 2.114 1.483 3.171 1.421 1.119 0 1.927-.618 1.927-1.668s-.808-1.668-1.865-1.668zm-58.57 8.031c-2.114 0-3.917-2.533-4.228-4.077.311-1.544 2.114-4.139 4.228-4.077 2.052 0 2.984 1.791 2.984 4.077 0 2.224-.933 4.077-2.984 4.077zm38.736-7.722c-2.114 0-3.917 2.347-4.228 3.892.311 1.606 2.052 4.324 4.228 4.263 2.052 0 2.985-1.791 2.985-4.077 0-2.224-.933-4.077-2.985-4.077zm-17.721 8.155c1.057 0 2.922-.247 3.606-.618l2.238 2.842c-1.43 1.174-4.663 1.977-6.777 1.977-5.658 0-9.264-3.398-9.264-8.463 0-5.004 4.228-8.402 9.14-8.402 4.539 0 6.342 2.965 6.342 5.56 0 3.212-2.736 4.88-5.845 4.88-1.554 0-3.109-.433-4.228-1.359.187 1.977 2.363 3.583 4.788 3.583zm38.861 0c1.057 0 2.922-.247 3.606-.618l2.238 2.842c-1.43 1.174-4.663 1.977-6.777 1.977-5.658 0-9.264-3.398-9.264-8.463 0-5.004 4.228-8.402 9.14-8.402 4.539 0 6.342 2.965 6.342 5.56 0 3.212-2.736 4.88-5.845 4.88-1.554 0-3.109-.433-4.228-1.359.186 1.977 2.363 3.583 4.788 3.583zm-81.762 4.2c2.487 0 4.415-1.853 4.415-1.853v.988c0 2.409-1.492 3.707-5.285 3.707-1.057 0-2.922-.556-3.606-.927L.436 29.714C1.866 30.888 4.54 31.938 7.151 32c5.223 0 8.829-2.78 8.829-7.969V9.081h-5.347v8.216c0 2.471-1.368 3.089-2.736 3.089s-2.549-.618-2.549-3.089V9.081H.001v9.328c0 4.201 2.052 6.857 6.591 6.857zm68.953-8.648c0 6.054-4.104 8.649-7.834 8.649-1.741 0-3.109-.68-3.979-1.73v7.784h-5.347V9.02h3.047c.497.803.808 1.544 1.119 2.348h.187s2.238-2.965 5.845-2.965 6.964 2.842 6.964 8.216zM30.218 8.463c-3.606 0-5.534 2.595-5.534 2.595h-.186c-.373-2.718 1.244-4.386 5.347-4.757 2.425-.247 6.218-1.421 7.523-2.78L34.819 0c-1.99.988-4.166 1.297-6.839 1.668-3.171.432-8.953 2.348-9.016 11.429 0 8.772 4.788 12.232 9.326 12.232 4.352 0 8.456-3.336 8.456-8.649 0-5.375-3.233-8.216-6.529-8.216zm93.327 10.935c-1.741 0-3.358 2.162-3.606 3.521.249 1.297 1.803 3.521 3.606 3.521.311 0 .56-.062.808-.124 1.244-.371 1.803-1.791 1.803-3.398 0-1.791-.684-3.274-2.176-3.521h-.435z"/></symbol><symbol id="icon-menu" viewBox="0 0 32 32"><path d="M26 13a1 1 0 000-2H6a1 1 0 000 2h20zM6 19a1 1 0 000 2h20a1 1 0 000-2H6z"/></symbol><symbol id="icon-Plus" viewBox="0 0 32 32"><path fill="var(--color1, #fff)" d="M13.333 32a2.667 2.667 0 105.334 0V18.667H32a2.667 2.667 0 100-5.334H18.667V0a2.667 2.667 0 10-5.334 0v13.333H0a2.667 2.667 0 100 5.334h13.333V32z"/></symbol></defs></svg>