<svg aria-hidden="true" style="position: absolute; width: 0; height: 0; overflow: hidden;" version="1.1" xmlns="http://www.w3.org/2000/svg" xmlns:xlink="http://www.w3.org/1999/xlink">
<defs>
<symbol id="icon-Cross" viewBox="0 0 32 32">
<path fill="#fff" style="fill: var(--color1, #fff)" d="M7.579 22.664c-0.694 0.694-0.694 1.82 0 2.514s1.82 0.694 2.514 0l6.285-6.285 6.285 6.285c0.694 0.694 1.82 0.694 2.514 0s0.694-1.82 0-2.514l-6.285-6.285 6.285-6.285c0.694-0.694 0.694-1.82 0-2.514s-1.82-0.694-2.514 0l-6.285 6.285-6.285-6.285c-0.694-0.694-1.82-0.694-2.514 0s-0.694 1.82 0 2.514l6.285 6.285-6.285 6.285z"></path>
</symbol>
<symbol id="icon-Logo" viewBox="0 0 127 32">
<path d="M111.669 14.209c0 0-1.741 3.398-3.606 5.066h-2.114c-1.803-1.606-3.606-5.066-3.606-5.066v10.625h-5.347v-15.753h6.218l3.793 5.745 3.793-5.745h6.218v15.753h-5.347v-10.625zM48.187 12.602c-1.181 0-2.922 0.927-3.233 1.915 0.435 0.803 2.114 1.483 3.171 1.421 1.119 0 1.927-0.618 1.927-1.668s-0.808-1.668-1.865-1.668zM87.047 12.602c-1.181 0-2.922 0.927-3.233 1.915 0.435 0.803 2.114 1.483 3.171 1.421 1.119 0 1.927-0.618 1.927-1.668s-0.808-1.668-1.865-1.668zM28.477 20.633c-2.114 0-3.917-2.533-4.228-4.077 0.311-1.544 2.114-4.139 4.228-4.077 2.052 0 2.984 1.791 2.984 4.077 0 2.224-0.933 4.077-2.984 4.077zM67.213 12.911c-2.114 0-3.917 2.347-4.228 3.892 0.311 1.606 2.052 4.324 4.228 4.263 2.052 0 2.985-1.791 2.985-4.077 0-2.224-0.933-4.077-2.985-4.077zM49.492 21.066c1.057 0 2.922-0.247 3.606-0.618l2.238 2.842c-1.43 1.174-4.663 1.977-6.777 1.977-5.658 0-9.264-3.398-9.264-8.463 0-5.004 4.228-8.402 9.14-8.402 4.539 0 6.342 2.965 6.342 5.56 0 3.212-2.736 4.88-5.845 4.88-1.554 0-3.109-0.433-4.228-1.359 0.187 1.977 2.363 3.583 4.788 3.583zM88.353 21.066c1.057 0 2.922-0.247 3.606-0.618l2.238 2.842c-1.43 1.174-4.663 1.977-6.777 1.977-5.658 0-9.264-3.398-9.264-8.463 0-5.004 4.228-8.402 9.14-8.402 4.539 0 6.342 2.965 6.342 5.56 0 3.212-2.736 4.88-5.845 4.88-1.554 0-3.109-0.433-4.228-1.359 0.186 1.977 2.363 3.583 4.788 3.583zM6.591 25.266c2.487 0 4.415-1.853 4.415-1.853v0.988c0 2.409-1.492 3.707-5.285 3.707-1.057 0-2.922-0.556-3.606-0.927l-1.679 2.533c1.43 1.174 4.104 2.224 6.715 2.286 5.223 0 8.829-2.78 8.829-7.969v-14.95h-5.347v8.216c0 2.471-1.368 3.089-2.736 3.089s-2.549-0.618-2.549-3.089v-8.216h-5.347v9.328c0 4.201 2.052 6.857 6.591 6.857zM75.544 16.618c0 6.054-4.104 8.649-7.834 8.649-1.741 0-3.109-0.68-3.979-1.73v7.784h-5.347v-22.301h3.047c0.497 0.803 0.808 1.544 1.119 2.348h0.187c0 0 2.238-2.965 5.845-2.965s6.964 2.842 6.964 8.216zM30.218 8.463c-3.606 0-5.534 2.595-5.534 2.595h-0.186c-0.373-2.718 1.244-4.386 5.347-4.757 2.425-0.247 6.218-1.421 7.523-2.78l-2.549-3.521c-1.99 0.988-4.166 1.297-6.839 1.668-3.171 0.432-8.953 2.348-9.016 11.429 0 8.772 4.788 12.232 9.326 12.232 4.352 0 8.456-3.336 8.456-8.649 0-5.375-3.233-8.216-6.529-8.216zM123.545 19.398c-1.741 0-3.358 2.162-3.606 3.521 0.249 1.297 1.803 3.521 3.606 3.521 0.311 0 0.56-0.062 0.808-0.124 1.244-0.371 1.803-1.791 1.803-3.398 0-1.791-0.684-3.274-2.176-3.521h-0.435z"></path>
</symbol>
<symbol id="icon-menu" viewBox="0 0 32 32">
<path d="M26 13c0.552 0 1-0.448 1-1s-0.448-1-1-1h-20c-0.552 0-1 0.448-1 1s0.448 1 1 1h20zM6 19c-0.552 0-1 0.448-1 1s0.448 1 1 1h20c0.552 0 1-0.448 1-1s-0.448-1-1-1h-20z"></path>
</symbol>
<symbol id="icon-Plus" viewBox="0 0 32 32">
<path fill="#fff" style="fill: var(--color1, #fff)" d="M13.333 32c0 1.473 1.194 2.667 2.667 2.667s2.667-1.194 2.667-2.667v-13.333h13.333c1.473 0 2.667-1.194 2.667-2.667s-1.194-2.667-2.667-2.667h-13.333v-13.333c0-1.473-1.194-2.667-2.667-2.667s-2.667 1.194-2.667 2.667v13.333h-13.333c-1.473 0-2.667 1.194-2.667 2.667s1.194 2.667 2.667 2.667h13.333v13.333z"></path>
</symbol>
</defs>
</svg>
